<mxfile host="65bd71144e">
    <diagram id="OyqzKgDNUFBO2oSsgFbs" name="Page-1">
        <mxGraphModel dx="650" dy="436" grid="1" gridSize="10" guides="1" tooltips="1" connect="1" arrows="1" fold="1" page="1" pageScale="1" pageWidth="827" pageHeight="1169" math="0" shadow="0">
            <root>
                <mxCell id="0"/>
                <mxCell id="1" parent="0"/>
                <mxCell id="2" value="Connexion status" style="shape=umlFrame;whiteSpace=wrap;html=1;width=120;height=30;boundedLbl=1;verticalAlign=middle;align=left;spacingLeft=5;" vertex="1" parent="1">
                    <mxGeometry x="60" y="40" width="580" height="380" as="geometry"/>
                </mxCell>
                <mxCell id="12" style="edgeStyle=none;html=1;" edge="1" parent="1" source="10" target="11">
                    <mxGeometry relative="1" as="geometry"/>
                </mxCell>
                <mxCell id="10" value="" style="ellipse;fillColor=strokeColor;" vertex="1" parent="1">
                    <mxGeometry x="120" y="170" width="30" height="30" as="geometry"/>
                </mxCell>
                <mxCell id="14" style="edgeStyle=none;html=1;" edge="1" parent="1" source="11" target="13">
                    <mxGeometry relative="1" as="geometry"/>
                </mxCell>
                <mxCell id="19" style="edgeStyle=none;html=1;" edge="1" parent="1" source="11" target="17">
                    <mxGeometry relative="1" as="geometry"/>
                </mxCell>
                <object label="Initializing" myProperty="myValue" id="11">
                    <mxCell style="shape=umlState;rounded=1;verticalAlign=top;spacingTop=5;umlStateSymbol=collapseState;absoluteArcSize=1;arcSize=10;" vertex="1" parent="1">
                        <mxGeometry x="210" y="155" width="140" height="60" as="geometry"/>
                    </mxCell>
                </object>
                <mxCell id="16" style="edgeStyle=none;html=1;" edge="1" parent="1" source="13" target="15">
                    <mxGeometry relative="1" as="geometry"/>
                </mxCell>
                <mxCell id="18" style="edgeStyle=none;html=1;" edge="1" parent="1" source="13" target="17">
                    <mxGeometry relative="1" as="geometry">
                        <Array as="points">
                            <mxPoint x="370" y="260"/>
                        </Array>
                    </mxGeometry>
                </mxCell>
                <mxCell id="13" value="Connecting" style="shape=umlState;rounded=1;verticalAlign=top;spacingTop=5;umlStateSymbol=collapseState;absoluteArcSize=1;arcSize=10;" vertex="1" parent="1">
                    <mxGeometry x="210" y="300" width="140" height="60" as="geometry"/>
                </mxCell>
                <mxCell id="22" style="edgeStyle=none;html=1;" edge="1" parent="1" source="15" target="17">
                    <mxGeometry relative="1" as="geometry"/>
                </mxCell>
                <mxCell id="15" value="Connected" style="shape=umlState;rounded=1;verticalAlign=top;spacingTop=5;umlStateSymbol=collapseState;absoluteArcSize=1;arcSize=10;" vertex="1" parent="1">
                    <mxGeometry x="410" y="300" width="140" height="60" as="geometry"/>
                </mxCell>
                <mxCell id="21" style="edgeStyle=none;html=1;" edge="1" parent="1" source="17" target="13">
                    <mxGeometry relative="1" as="geometry">
                        <Array as="points">
                            <mxPoint x="390" y="280"/>
                        </Array>
                    </mxGeometry>
                </mxCell>
                <mxCell id="17" value="Disconnected" style="shape=umlState;rounded=1;verticalAlign=top;spacingTop=5;umlStateSymbol=collapseState;absoluteArcSize=1;arcSize=10;" vertex="1" parent="1">
                    <mxGeometry x="410" y="155" width="140" height="60" as="geometry"/>
                </mxCell>
                <mxCell id="29" value="" style="edgeStyle=none;html=1;" edge="1" parent="1" source="27">
                    <mxGeometry relative="1" as="geometry">
                        <mxPoint x="400" y="270" as="targetPoint"/>
                    </mxGeometry>
                </mxCell>
                <mxCell id="27" value="port change" style="shape=note2;boundedLbl=1;whiteSpace=wrap;html=1;size=25;verticalAlign=top;align=left;spacingLeft=5;" vertex="1" parent="1">
                    <mxGeometry x="310" y="50" width="160" height="60" as="geometry"/>
                </mxCell>
                <mxCell id="28" value="&lt;&lt;keyword&gt;&gt;" style="resizeWidth=1;part=1;strokeColor=none;fillColor=none;align=left;spacingLeft=5;" vertex="1" parent="27">
                    <mxGeometry width="160" height="25" relative="1" as="geometry"/>
                </mxCell>
                <mxCell id="32" style="edgeStyle=none;html=1;" edge="1" parent="1" source="30">
                    <mxGeometry relative="1" as="geometry">
                        <mxPoint x="480" y="260" as="targetPoint"/>
                    </mxGeometry>
                </mxCell>
                <mxCell id="30" value="port change, connection closed" style="shape=note2;boundedLbl=1;whiteSpace=wrap;html=1;size=25;verticalAlign=top;align=left;spacingLeft=5;" vertex="1" parent="1">
                    <mxGeometry x="580" y="230" width="160" height="60" as="geometry"/>
                </mxCell>
                <mxCell id="31" value="&lt;&lt;keyword&gt;&gt;" style="resizeWidth=1;part=1;strokeColor=none;fillColor=none;align=left;spacingLeft=5;" vertex="1" parent="30">
                    <mxGeometry width="160" height="25" relative="1" as="geometry"/>
                </mxCell>
            </root>
        </mxGraphModel>
    </diagram>
</mxfile>